<?xml version="1.0" ?><!DOCTYPE svg  PUBLIC '-//W3C//DTD SVG 1.1//EN'  'http://www.w3.org/Graphics/SVG/1.1/DTD/svg11.dtd'><svg id="Layer_1" fill="#aaa" version="1.1" viewBox="0 0 100 100" xml:space="preserve" xmlns="http://www.w3.org/2000/svg" xmlns:xlink="http://www.w3.org/1999/xlink"><path d="M86.3,27.4c-5.8,11.9-19.1,20-30.8,25.2c-8.6,3.8-18.2,6.8-27.9,7.5c2.7-1.6,5.1-3.7,7.1-5.9c1-1.2-0.8-4.5-0.1-5.3  c-4.5,5.6-9.8,8.8-16.1,11.1c-1.4-0.1-2.8-0.3-4.1-0.5c0,0-0.1,0.6-0.1,1.5c-0.4,0.3-0.7,0.7-0.7,1.3c0,0.3,0.2,2.6,0.3,1.6  c0,0,0,0,0.1-0.1c0,0.2,0.1,0.3,0.1,0.3c0.2,0,0.4,0,0.7,0c1.3,0.4,2.7,0.7,4.1,1c3,1,6.3,2.3,6.8,2.5c3.5,1.6,6.9,3.4,9.7,6.2  c-0.5-0.5,0.6-3.7,0-4.6c-1.2-1.8-2.8-3.1-4.7-4.1c8.8-1.2,17.7-4.8,25-8.5c11.7-5.8,25.1-14.4,30.7-26.7C86.7,29.2,86,28,86.3,27.4  z"/></svg>